<?xml version="1.0" encoding="UTF-8"?>
<svg xmlns="http://www.w3.org/2000/svg" xmlns:xlink="http://www.w3.org/1999/xlink" xmlns:svgjs="http://svgjs.com/svgjs" version="1.1" width="512" height="512" x="0" y="0" viewBox="0 0 512 512.001" style="enable-background:new 0 0 512 512" xml:space="preserve" class="">
  <g transform="matrix(1,0,0,1,60,0)">
    <path xmlns="http://www.w3.org/2000/svg" d="m141.816406 194.808594c-4.140625 0-7.5 3.355468-7.5 7.5 0 4.144531 3.359375 7.5 7.5 7.5h17.023438c4.144531 0 7.5-3.355469 7.5-7.5 0-4.144532-3.355469-7.5-7.5-7.5zm0 0" fill="#222222" data-original="#000000" class=""/>
    <path xmlns="http://www.w3.org/2000/svg" d="m186.238281 202.308594c0 4.144531 3.355469 7.5 7.5 7.5h150.011719c4.140625 0 7.5-3.355469 7.5-7.5 0-4.144532-3.359375-7.5-7.5-7.5h-150.011719c-4.144531 0-7.5 3.355468-7.5 7.5zm0 0" fill="#222222" data-original="#000000" class=""/>
    <path xmlns="http://www.w3.org/2000/svg" d="m134.316406 240.292969c0 4.140625 3.359375 7.5 7.5 7.5h100.964844c4.144531 0 7.5-3.359375 7.5-7.5 0-4.144531-3.355469-7.5-7.5-7.5h-100.964844c-4.140625 0-7.5 3.355469-7.5 7.5zm0 0" fill="#222222" data-original="#000000" class=""/>
    <path xmlns="http://www.w3.org/2000/svg" d="m343.75 296.011719h-201.933594c-4.140625 0-7.5 3.359375-7.5 7.5 0 4.144531 3.359375 7.5 7.5 7.5h201.933594c4.140625 0 7.5-3.355469 7.5-7.5 0-4.140625-3.359375-7.5-7.5-7.5zm0 0" fill="#222222" data-original="#000000" class=""/>
    <path xmlns="http://www.w3.org/2000/svg" d="m141.816406 348.996094h100.96875c4.140625 0 7.5-3.355469 7.5-7.5 0-4.144532-3.359375-7.5-7.5-7.5h-100.96875c-4.140625 0-7.5 3.355468-7.5 7.5 0 4.144531 3.359375 7.5 7.5 7.5zm0 0" fill="#222222" data-original="#000000" class=""/>
    <path xmlns="http://www.w3.org/2000/svg" d="m343.75 397.21875h-201.933594c-4.140625 0-7.5 3.355469-7.5 7.5 0 4.140625 3.359375 7.5 7.5 7.5h201.933594c4.140625 0 7.5-3.359375 7.5-7.5 0-4.144531-3.359375-7.5-7.5-7.5zm0 0" fill="#222222" data-original="#000000" class=""/>
    <path xmlns="http://www.w3.org/2000/svg" d="m158.839844 435.199219h-17.023438c-4.140625 0-7.5 3.359375-7.5 7.5 0 4.144531 3.359375 7.5 7.5 7.5h17.023438c4.144531 0 7.5-3.355469 7.5-7.5 0-4.140625-3.355469-7.5-7.5-7.5zm0 0" fill="#222222" data-original="#000000" class=""/>
    <path xmlns="http://www.w3.org/2000/svg" d="m242.78125 435.199219h-49.042969c-4.144531 0-7.5 3.359375-7.5 7.5 0 4.144531 3.355469 7.5 7.5 7.5h49.042969c4.144531 0 7.5-3.355469 7.5-7.5 0-4.140625-3.355469-7.5-7.5-7.5zm0 0" fill="#222222" data-original="#000000" class=""/>
    <path xmlns="http://www.w3.org/2000/svg" d="m57.246094 123.3125c2.515625 0 4.464844-.800781 5.035156-2.976562l4.351562-15.226563h26.214844l4.351563 15.226563c.574219 2.175781 2.519531 2.976562 5.039062 2.976562 4.007813 0 9.386719-2.632812 9.386719-6.183594 0-.34375-.113281-.6875-.226562-1.144531l-22.097657-72.011719c-1.027343-3.433594-5.265625-5.039062-9.617187-5.039062-4.234375 0-8.472656 1.605468-9.5 5.039062l-22.097656 72.011719c-.113282.457031-.226563.917969-.226563 1.144531-.003906 3.664063 5.378906 6.183594 9.386719 6.183594zm22.4375-65.027344 9.960937 35.144532h-19.921875zm0 0" fill="#222222" data-original="#000000" class=""/>
    <path xmlns="http://www.w3.org/2000/svg" d="m144.136719 114.152344v-12.25h12.136719c2.402343 0 4.808593-2.402344 4.808593-6.066406 0-3.433594-2.40625-6.183594-4.808593-6.183594h-12.136719v-12.132813c0-2.40625-2.402344-4.695312-6.066407-4.695312-3.4375 0-6.183593 2.289062-6.183593 4.695312v12.132813h-12.25c-2.746094 0-4.578125 2.75-4.578125 6.183594 0 3.664062 1.832031 6.066406 4.578125 6.066406h12.25v12.25c0 2.75 2.75 4.582031 6.183593 4.582031 3.664063 0 6.066407-1.832031 6.066407-4.582031zm0 0" fill="#222222" data-original="#000000" class=""/>
    <path xmlns="http://www.w3.org/2000/svg" d="m400.453125 100.339844c0-.003906 0-.003906-.003906-.003906-.253907-.664063-.601563-1.289063-1.035157-1.859376-.035156-.046874-.070312-.089843-.105468-.136718-.214844-.269532-.441406-.527344-.695313-.765625l-100.816406-95.519531c-.238281-.226563-.5-.433594-.765625-.625-.0625-.042969-.121094-.085938-.183594-.128907-.265625-.183593-.542968-.347656-.828125-.492187-.03125-.019532-.0625-.03125-.09375-.042969-.265625-.128906-.535156-.242187-.8125-.339844-.066406-.023437-.132812-.042969-.195312-.066406-.304688-.097656-.613281-.175781-.929688-.234375-.039062-.007812-.082031-.011719-.121093-.019531-.285157-.0468752-.570313-.074219-.859376-.089844-.070312 0-.136718-.0078125-.203124-.0078125-.054688 0-.109376-.0078125-.164063-.0078125h-267.539063c-13.839843 0-25.101562 11.261719-25.101562 25.101562v461.796876c0 13.839843 11.261719 25.101562 25.101562 25.101562h350.753907c13.839843 0 25.101562-11.261719 25.101562-25.101562v-383.878907c0-.929687-.179687-1.832031-.503906-2.679687zm-100.3125-75.402344 69.464844 65.816406 5.015625 4.75h-71.113282c-1.855468 0-3.367187-1.511718-3.367187-3.367187zm85.816406 461.960938c0 5.570312-4.53125 10.101562-10.101562 10.101562h-350.753907c-5.570312 0-10.101562-4.53125-10.101562-10.101562v-461.796876c0-5.570312 4.53125-10.101562 10.101562-10.101562h260.039063v77.136719c0 10.128906 8.238281 18.367187 18.367187 18.367187h82.449219zm0 0" fill="#222222" data-original="#000000" class=""/>
    <path xmlns="http://www.w3.org/2000/svg" d="m99.824219 186.917969h-47.152344c-7.359375 0-13.347656 5.988281-13.347656 13.347656v42.070313c0 7.359374 5.988281 13.347656 13.347656 13.347656h47.152344c7.359375 0 13.34375-5.988282 13.34375-13.347656v-42.070313c0-7.359375-5.984375-13.347656-13.34375-13.347656zm-1.65625 53.765625h-43.84375v-38.765625h43.84375zm0 0" fill="#222222" data-original="#000000" class=""/>
    <path xmlns="http://www.w3.org/2000/svg" d="m99.824219 288.121094h-47.152344c-7.359375 0-13.347656 5.988281-13.347656 13.351562v42.066406c0 7.359376 5.988281 13.347657 13.347656 13.347657h47.152344c7.359375 0 13.34375-5.988281 13.34375-13.347657v-42.066406c0-7.363281-5.984375-13.351562-13.34375-13.351562zm-1.65625 53.765625h-43.84375v-38.765625h43.84375zm0 0" fill="#222222" data-original="#000000" class=""/>
    <path xmlns="http://www.w3.org/2000/svg" d="m99.824219 389.328125h-47.152344c-7.359375 0-13.347656 5.984375-13.347656 13.347656v42.066407c0 7.359374 5.988281 13.347656 13.347656 13.347656h47.152344c7.359375 0 13.34375-5.984375 13.34375-13.347656v-42.066407c0-7.363281-5.984375-13.347656-13.34375-13.347656zm-1.65625 53.761719h-43.84375v-38.761719h43.84375zm0 0" fill="#222222" data-original="#000000" class=""/>
  </g>
</svg>
