<?xml version="1.0" encoding="UTF-8"?>
<svg xmlns="http://www.w3.org/2000/svg" xmlns:xlink="http://www.w3.org/1999/xlink" xmlns:svgjs="http://svgjs.com/svgjs" version="1.1" width="512" height="512" x="0" y="0" viewBox="0 0 512 512" style="enable-background:new 0 0 512 512" xml:space="preserve">
  <g>
<g xmlns="http://www.w3.org/2000/svg">
	<g>
		<path d="M96.531,467.281c-1.859-1.861-4.44-2.931-7.069-2.931c-2.641,0-5.21,1.07-7.07,2.931c-1.87,1.859-2.93,4.439-2.93,7.069    c0,2.63,1.06,5.21,2.93,7.07c1.86,1.86,4.44,2.93,7.07,2.93c2.63,0,5.2-1.069,7.069-2.93c1.86-1.86,2.931-4.44,2.931-7.07    C99.462,471.72,98.392,469.14,96.531,467.281z" fill="#ffffff" data-original="#000000"/>
	</g>
</g>
<g xmlns="http://www.w3.org/2000/svg">
	<g>
		<path d="M353.342,42.976l-0.255-0.278c-3.73-4.073-10.056-4.35-14.129-0.621c-4.073,3.73-4.351,10.056-0.621,14.129l0.255,0.278    c1.973,2.154,4.671,3.246,7.378,3.246c2.412,0,4.832-0.868,6.751-2.625C356.794,53.374,357.072,47.049,353.342,42.976z" fill="#ffffff" data-original="#000000"/>
	</g>
</g>
<g xmlns="http://www.w3.org/2000/svg">
	<g>
		<path d="M255.921,53.268c-43.372,0-78.656,35.285-78.656,78.656c0,43.372,35.285,78.656,78.656,78.656    c43.372,0,78.656-35.286,78.656-78.656C334.577,88.554,299.292,53.268,255.921,53.268z M255.921,190.581    c-32.344,0-58.656-26.313-58.656-58.656c0-32.343,26.313-58.656,58.656-58.656c32.344,0,58.656,26.313,58.656,58.656    C314.577,164.268,288.263,190.581,255.921,190.581z" fill="#ffffff" data-original="#000000"/>
	</g>
</g>
<g xmlns="http://www.w3.org/2000/svg">
	<g>
		<path d="M505.025,165.354L387.74,127.011c-0.655-18.144-4.931-35.602-12.759-51.961c-2.385-4.982-8.354-7.086-13.337-4.704    c-4.981,2.384-7.088,8.355-4.704,13.337c7.232,15.114,10.899,31.345,10.899,48.241c0,18.61-4.624,36.856-13.39,53.099    c-1.884-0.24-3.799-0.371-5.742-0.371c-15.173,0-29.239,7.783-37.397,20.274c-9.542,1.048-18.1,5.961-23.803,13.582    c-13.612,1.801-24.152,13.483-24.152,27.58c0,14.025,10.435,25.654,23.947,27.545l-31.381,40.203l-15.11-19.367    c-0.057-0.076-0.116-0.149-0.174-0.224l-71.159-91.208c-0.114-0.158-0.233-0.313-0.356-0.465    c-16.2-19.876-25.122-44.967-25.122-70.649c0-20.49,5.573-40.435,16.107-57.846h26.299c5.522,0,10-4.477,10-10    c0-8.258-2.478-15.946-6.72-22.378c19.271-14.209,42.061-21.696,66.234-21.696c19.423,0,38.552,5.049,55.316,14.602    c4.797,2.731,10.904,1.06,13.639-3.739c2.734-4.798,1.061-10.905-3.738-13.639C301.36,5.961,278.808,0.005,255.921,0.005    c-29.406,0-58.183,9.937-81.275,28.012c-4.875-2.59-10.329-4.231-16.118-4.66C150.317,9.148,134.843,0,118.076,0    c-16.767,0-32.24,9.148-40.451,23.357c-21.15,1.566-37.878,19.232-37.878,40.722c0,5.523,4.478,10,10,10h87.593    c-8.756,17.928-13.34,37.667-13.34,57.846c0,5.5,0.351,10.976,1.034,16.398L13.19,111.757c-3.046-0.995-6.385-0.471-8.978,1.409    c-2.595,1.881-4.13,4.892-4.13,8.096v327.141c0,4.325,2.781,8.161,6.893,9.505l35.479,11.6c1.032,0.338,2.079,0.498,3.109,0.498    c4.208-0.001,8.124-2.679,9.503-6.896c1.716-5.249-1.147-10.896-6.397-12.612l-28.586-9.346V321.631h68.556    c11.184,0,20.282,9.099,20.282,20.282c0,8.315-4.983,15.699-12.696,18.81c-7.469,3.012-13.423,9.045-16.336,16.554    c-2.913,7.508-2.587,15.979,0.883,23.21c0.004,0.01,0.047,0.1,0.052,0.109c6.979,14.552,24.513,20.742,39.081,13.803    c22.646-10.789,49.683-8.855,70.563,5.043l67.163,44.707l-83.605,27.333l-42.673-13.951c-5.25-1.719-10.896,1.148-12.612,6.397    c-1.716,5.249,1.148,10.896,6.397,12.612l45.78,14.967c2.02,0.66,4.195,0.66,6.215,0l160.838-52.583l160.837,52.583    c1.016,0.332,2.064,0.495,3.106,0.495c2.083,0,4.143-0.65,5.871-1.904c2.595-1.881,4.13-4.892,4.13-8.096V311.55    c0.001-0.028,0.002-0.056,0.002-0.084V174.859C511.918,170.533,509.137,166.698,505.025,165.354z M283.356,246.09    c0-4.313,3.508-7.821,7.82-7.821c0.272,0,0.566,0.017,0.872,0.05c4.151,0.451,8.17-1.737,10.036-5.488    c2.489-5.005,7.5-8.114,13.078-8.114c0.365,0,0.772,0.019,1.243,0.059c4.183,0.356,8.157-1.958,9.919-5.781    c4.013-8.712,12.799-14.341,22.384-14.341c11.469,0,21.323,7.779,23.964,18.918c1.036,4.37,4.858,7.514,9.347,7.686    c6.103,0.234,10.884,5.207,10.884,11.319c0,6.25-5.084,11.333-11.333,11.333h-90.393    C286.864,253.911,283.356,250.402,283.356,246.09z M248.036,336.243c1.895,2.429,4.803,3.849,7.884,3.849    c3.08,0,5.989-1.419,7.884-3.847l18.902-24.216c11.937,4.341,19.811,11.444,19.811,18.063c0,10.608-19.927,22.473-46.596,22.473    c-26.669,0-46.596-11.864-46.596-22.473c0-6.724,7.893-13.731,19.818-18.065L248.036,336.243z M62.32,54.078    c3.562-6.452,10.46-10.834,18.366-10.834c0.687,0,1.425,0.039,2.194,0.116c4.485,0.448,8.712-2.16,10.327-6.365    C97.112,26.83,107.106,20,118.076,20c10.971,0,20.964,6.83,24.868,16.995c1.614,4.206,5.841,6.813,10.327,6.366    c0.77-0.077,1.508-0.116,2.194-0.116c7.907,0,14.805,4.383,18.368,10.834H62.32z M20.082,236.11V135.052l60.784,19.872    l5.929,48.591c1.282,10.505-2.35,20.747-9.964,28.098c-7.614,7.352-17.976,10.62-28.431,8.97L20.082,236.11z M491.919,488.209    l-98-32.038v-44.651c0-6.352,5.168-11.52,11.52-11.52c11.816,0,22.537-6.516,27.979-17.005c5.442-10.489,4.595-23.006-2.21-32.666    l-5.38-7.637c-3.582-5.086-4.982-11.511-3.841-17.627c1.222-6.548,5.024-12.067,10.706-15.543    c5.683-3.476,12.328-4.346,18.716-2.451l40.511,12.021V488.209z M491.919,298.234l-34.821-10.333    c-11.714-3.475-24.413-1.813-34.84,4.563c-10.425,6.376-17.689,16.923-19.932,28.935c-2.126,11.386,0.481,23.347,7.15,32.814    l5.38,7.637c2.524,3.584,2.826,8.047,0.808,11.938c-2.018,3.891-5.842,6.215-10.226,6.215c-17.38,0-31.52,14.14-31.52,31.52    v38.113l-32.839-10.736c-2.02-0.661-4.196-0.661-6.215-0.001l-53.029,17.337l-80.286-53.442    c-26.704-17.777-61.285-20.25-90.247-6.45c-4.637,2.206-10.223,0.239-12.433-4.366c-0.005-0.01-0.047-0.101-0.052-0.11    c-1.119-2.332-1.22-4.944-0.284-7.355c0.936-2.411,2.771-4.272,5.171-5.239c15.318-6.179,25.216-20.843,25.216-37.358    c0-22.212-18.07-40.282-40.282-40.282H20.083v-45.275l25.2,3.979c2.844,0.449,5.684,0.671,8.499,0.671    c13.721,0,26.844-5.258,36.942-15.007c12.17-11.75,17.975-28.118,15.926-44.91l-4.797-39.307l28.079,9.18    c4.934,15.916,12.857,30.877,23.441,43.943c0.035,0.045,0.069,0.091,0.104,0.136l62.881,80.597    c-16.971,7.755-27.033,20.24-27.033,34.451c0,23.816,29.252,42.473,66.595,42.473s66.595-18.656,66.595-42.473    c0-13.939-10.154-26.607-27.044-34.418l16.989-21.765h69.11c17.277,0,31.333-14.057,31.333-31.333    c0-14.394-9.589-26.5-22.862-30.18c-3.431-8.461-9.301-15.491-16.667-20.36c7.083-13.831,11.636-28.825,13.498-44.269    l105.047,34.343V298.234z" fill="#ffffff" data-original="#000000"/>
	</g>
</g>















</g>
</svg>
