<?xml version="1.0" encoding="UTF-8"?>
<svg xmlns="http://www.w3.org/2000/svg" xmlns:xlink="http://www.w3.org/1999/xlink" xmlns:svgjs="http://svgjs.com/svgjs" version="1.1" width="512" height="512" x="0" y="0" viewBox="0 0 128 128" style="enable-background:new 0 0 512 512" xml:space="preserve" class="">
  <g>
    <g xmlns="http://www.w3.org/2000/svg">
      <path d="M54.459,76.46h6a1.749,1.749,0,0,0,1.75-1.75v-6a1.75,1.75,0,0,0-1.75-1.75h-6a1.75,1.75,0,0,0-1.75,1.75v6A1.749,1.749,0,0,0,54.459,76.46Zm1.75-6h2.5v2.5h-2.5Z" fill="#ffffff" data-original="#000000" class=""/>
      <path d="M67.541,66.96a1.75,1.75,0,0,0-1.75,1.75v6a1.749,1.749,0,0,0,1.75,1.75h6a1.749,1.749,0,0,0,1.75-1.75v-6a1.75,1.75,0,0,0-1.75-1.75Zm4.25,6h-2.5v-2.5h2.5Z" fill="#ffffff" data-original="#000000" class=""/>
      <path d="M96.7,63.378h6a1.749,1.749,0,0,0,1.75-1.75v-6a1.75,1.75,0,0,0-1.75-1.75h-6a1.75,1.75,0,0,0-1.75,1.75v6A1.749,1.749,0,0,0,96.7,63.378Zm1.75-6h2.5v2.5h-2.5Z" fill="#ffffff" data-original="#000000" class=""/>
      <path d="M96.7,76.46h6a1.749,1.749,0,0,0,1.75-1.75v-6a1.75,1.75,0,0,0-1.75-1.75h-6a1.75,1.75,0,0,0-1.75,1.75v6A1.749,1.749,0,0,0,96.7,76.46Zm1.75-6h2.5v2.5h-2.5Z" fill="#ffffff" data-original="#000000" class=""/>
      <path d="M96.7,89.542h6a1.75,1.75,0,0,0,1.75-1.75v-6a1.75,1.75,0,0,0-1.75-1.75h-6a1.75,1.75,0,0,0-1.75,1.75v6A1.75,1.75,0,0,0,96.7,89.542Zm1.75-6h2.5v2.5h-2.5Z" fill="#ffffff" data-original="#000000" class=""/>
      <path d="M96.7,102.624h6a1.75,1.75,0,0,0,1.75-1.75v-6a1.75,1.75,0,0,0-1.75-1.75h-6a1.75,1.75,0,0,0-1.75,1.75v6A1.75,1.75,0,0,0,96.7,102.624Zm1.75-6h2.5v2.5h-2.5Z" fill="#ffffff" data-original="#000000" class=""/>
      <path d="M121.5,113.75h-4.25v-69h1.25A1.75,1.75,0,0,0,120.25,43V37a1.75,1.75,0,0,0-1.75-1.75H85.65V28.083h3.282a1.749,1.749,0,0,0,1.089-3.119L65.09,5.13a1.755,1.755,0,0,0-2.18,0L37.979,24.964a1.749,1.749,0,0,0,1.089,3.119H42.35V35.25H9.5A1.75,1.75,0,0,0,7.75,37v6A1.75,1.75,0,0,0,9.5,44.75h1.25v69H6.5a1.75,1.75,0,0,0-1.75,1.75v6a1.75,1.75,0,0,0,1.75,1.75h115a1.75,1.75,0,0,0,1.75-1.75v-6A1.75,1.75,0,0,0,121.5,113.75Zm-7.75,0H85.65v-69h28.1Zm3-75v2.5H85.65v-2.5ZM64,8.736,83.919,24.582l-.019,0c-.011,0-.022,0-.033,0H44.133c-.011,0-.022,0-.033,0l-.019,0ZM82.15,28.083V113.75h-7.4V91.5A1.75,1.75,0,0,0,73,89.75H55a1.75,1.75,0,0,0-1.75,1.75v22.25h-7.4V28.083ZM56.75,113.75V93.25h14.5v20.5Zm-45.5-75h31.1v2.5H11.25Zm3,6h28.1v69H14.25Zm105.5,75H8.25v-2.5h111.5Z" fill="#ffffff" data-original="#000000" class=""/>
      <path d="M64,61.755a10.75,10.75,0,1,0-10.75-10.75A10.762,10.762,0,0,0,64,61.755Zm0-18a7.25,7.25,0,1,1-7.25,7.25A7.258,7.258,0,0,1,64,43.755Z" fill="#ffffff" data-original="#000000" class=""/>
      <path d="M64.762,54.242a1.75,1.75,0,0,0,2.474-2.475L65.75,50.28V47a1.75,1.75,0,0,0-3.5,0v4a1.751,1.751,0,0,0,.513,1.238Z" fill="#ffffff" data-original="#000000" class=""/>
      <path d="M31.3,53.878h-6a1.75,1.75,0,0,0-1.75,1.75v6a1.749,1.749,0,0,0,1.75,1.75h6a1.749,1.749,0,0,0,1.75-1.75v-6A1.75,1.75,0,0,0,31.3,53.878Zm-1.75,6h-2.5v-2.5h2.5Z" fill="#ffffff" data-original="#000000" class=""/>
      <path d="M31.3,66.96h-6a1.75,1.75,0,0,0-1.75,1.75v6a1.749,1.749,0,0,0,1.75,1.75h6a1.749,1.749,0,0,0,1.75-1.75v-6A1.75,1.75,0,0,0,31.3,66.96Zm-1.75,6h-2.5v-2.5h2.5Z" fill="#ffffff" data-original="#000000" class=""/>
      <path d="M31.3,80.042h-6a1.75,1.75,0,0,0-1.75,1.75v6a1.75,1.75,0,0,0,1.75,1.75h6a1.75,1.75,0,0,0,1.75-1.75v-6A1.75,1.75,0,0,0,31.3,80.042Zm-1.75,6h-2.5v-2.5h2.5Z" fill="#ffffff" data-original="#000000" class=""/>
      <path d="M31.3,93.124h-6a1.75,1.75,0,0,0-1.75,1.75v6a1.75,1.75,0,0,0,1.75,1.75h6a1.75,1.75,0,0,0,1.75-1.75v-6A1.75,1.75,0,0,0,31.3,93.124Zm-1.75,6h-2.5v-2.5h2.5Z" fill="#ffffff" data-original="#000000" class=""/>
    </g>
  </g>
</svg>
