<?xml version="1.0" encoding="UTF-8"?>
<svg xmlns="http://www.w3.org/2000/svg" xmlns:xlink="http://www.w3.org/1999/xlink" xmlns:svgjs="http://svgjs.com/svgjs" version="1.1" width="512" height="512" x="0" y="0" viewBox="0 0 512 512" style="enable-background:new 0 0 512 512" xml:space="preserve">
  <g>
    <path xmlns="http://www.w3.org/2000/svg" id="XMLID_150_" d="m373.226 0h-342.452c-16.969 0-30.774 13.806-30.774 30.774v450.451c0 16.969 13.805 30.775 30.774 30.775h342.452c16.969 0 30.774-13.806 30.774-30.774v-450.452c0-16.968-13.805-30.774-30.774-30.774zm10.774 481.226c0 5.941-4.833 10.774-10.774 10.774h-342.452c-5.941 0-10.774-4.833-10.774-10.774v-450.452c0-5.941 4.833-10.774 10.774-10.774h342.452c5.941 0 10.774 4.833 10.774 10.774z" fill="#ffffff" data-original="#000000"/>
    <path xmlns="http://www.w3.org/2000/svg" id="XMLID_218_" d="m340 142h-148c-5.523 0-10 4.478-10 10s4.477 10 10 10h148c5.523 0 10-4.478 10-10s-4.477-10-10-10z" fill="#ffffff" data-original="#000000"/>
    <path xmlns="http://www.w3.org/2000/svg" id="XMLID_221_" d="m192 98h66.197c5.523 0 10-4.478 10-10s-4.477-10-10-10h-66.197c-5.523 0-10 4.478-10 10s4.477 10 10 10z" fill="#ffffff" data-original="#000000"/>
    <path xmlns="http://www.w3.org/2000/svg" id="XMLID_222_" d="m340 78h-35.667c-5.523 0-10 4.478-10 10s4.477 10 10 10h35.667c5.523 0 10-4.478 10-10s-4.477-10-10-10z" fill="#ffffff" data-original="#000000"/>
    <path xmlns="http://www.w3.org/2000/svg" id="XMLID_223_" d="m340 278h-148c-5.523 0-10 4.478-10 10s4.477 10 10 10h148c5.523 0 10-4.478 10-10s-4.477-10-10-10z" fill="#ffffff" data-original="#000000"/>
    <path xmlns="http://www.w3.org/2000/svg" id="XMLID_224_" d="m192 234h66.197c5.523 0 10-4.478 10-10s-4.477-10-10-10h-66.197c-5.523 0-10 4.478-10 10s4.477 10 10 10z" fill="#ffffff" data-original="#000000"/>
    <path xmlns="http://www.w3.org/2000/svg" id="XMLID_225_" d="m340 214h-35.667c-5.523 0-10 4.478-10 10s4.477 10 10 10h35.667c5.523 0 10-4.478 10-10s-4.477-10-10-10z" fill="#ffffff" data-original="#000000"/>
    <path xmlns="http://www.w3.org/2000/svg" id="XMLID_227_" d="m340 414h-148c-5.523 0-10 4.478-10 10s4.477 10 10 10h148c5.523 0 10-4.478 10-10s-4.477-10-10-10z" fill="#ffffff" data-original="#000000"/>
    <path xmlns="http://www.w3.org/2000/svg" id="XMLID_228_" d="m192 370h66.197c5.523 0 10-4.478 10-10s-4.477-10-10-10h-66.197c-5.523 0-10 4.478-10 10s4.477 10 10 10z" fill="#ffffff" data-original="#000000"/>
    <path xmlns="http://www.w3.org/2000/svg" id="XMLID_230_" d="m340 350h-35.667c-5.523 0-10 4.478-10 10s4.477 10 10 10h35.667c5.523 0 10-4.478 10-10s-4.477-10-10-10z" fill="#ffffff" data-original="#000000"/>
    <path xmlns="http://www.w3.org/2000/svg" id="XMLID_231_" d="m120.949 101.846-36.012 36.012-13.846-13.846c-3.905-3.904-10.237-3.904-14.143 0-3.905 3.905-3.905 10.237 0 14.143l20.917 20.917c1.953 1.952 4.512 2.929 7.071 2.929s5.119-.977 7.071-2.929l43.083-43.083c3.905-3.905 3.905-10.237 0-14.143-3.903-3.905-10.236-3.905-14.141 0z" fill="#ffffff" data-original="#000000"/>
    <path xmlns="http://www.w3.org/2000/svg" id="XMLID_232_" d="m135.071 216.929c-3.905-3.904-10.237-3.904-14.143 0l-24.928 24.928-24.929-24.929c-3.905-3.904-10.237-3.904-14.143 0-3.905 3.905-3.905 10.237 0 14.143l24.929 24.929-24.929 24.929c-3.905 3.905-3.905 10.237 0 14.143 1.953 1.951 4.513 2.928 7.072 2.928s5.119-.977 7.071-2.929l24.929-24.928 24.929 24.929c1.953 1.952 4.512 2.929 7.071 2.929s5.119-.977 7.071-2.929c3.905-3.905 3.905-10.237 0-14.143l-24.928-24.929 24.929-24.929c3.904-3.905 3.904-10.237-.001-14.142z" fill="#ffffff" data-original="#000000"/>
    <path xmlns="http://www.w3.org/2000/svg" id="XMLID_236_" d="m135.071 352.929c-3.905-3.904-10.237-3.904-14.143 0l-24.928 24.928-24.929-24.929c-3.905-3.904-10.237-3.904-14.143 0-3.905 3.905-3.905 10.237 0 14.143l24.929 24.929-24.929 24.929c-3.905 3.905-3.905 10.237 0 14.143 1.953 1.951 4.513 2.928 7.072 2.928s5.119-.977 7.071-2.929l24.929-24.928 24.929 24.929c1.953 1.952 4.512 2.929 7.071 2.929s5.119-.977 7.071-2.929c3.905-3.905 3.905-10.237 0-14.143l-24.928-24.929 24.929-24.929c3.904-3.905 3.904-10.237-.001-14.142z" fill="#ffffff" data-original="#000000"/>
    <path xmlns="http://www.w3.org/2000/svg" id="XMLID_239_" d="m474 54c-20.953 0-38 17.047-38 38v146c0 5.522 4.477 10 10 10s10-4.478 10-10v-114.25h36v306.167h-36v-101.917c0-5.522-4.477-10-10-10s-10 4.478-10 10v111.917c0 1.418.301 2.819.884 4.111l28 62.083c1.617 3.584 5.184 5.889 9.116 5.889s7.499-2.305 9.116-5.889l28-62.083c.583-1.292.884-2.693.884-4.111v-347.917c0-20.953-17.047-38-38-38zm-18 49.75v-11.75c0-9.925 8.075-18 18-18s18 8.075 18 18v11.75zm18 373.927-12.52-27.76h25.04z" fill="#ffffff" data-original="#000000"/>
    <path xmlns="http://www.w3.org/2000/svg" id="XMLID_241_" d="m446 293c2.63 0 5.21-1.07 7.07-2.931 1.86-1.859 2.93-4.439 2.93-7.069 0-2.641-1.07-5.21-2.93-7.07s-4.44-2.93-7.07-2.93-5.21 1.069-7.07 2.93c-1.86 1.86-2.93 4.44-2.93 7.07s1.07 5.21 2.93 7.069c1.86 1.861 4.44 2.931 7.07 2.931z" fill="#ffffff" data-original="#000000"/>
  </g>
</svg>
